<?xml version="1.0" standalone="no"?>
<!DOCTYPE svg PUBLIC "-//W3C//DTD SVG 20010904//EN"
 "http://www.w3.org/TR/2001/REC-SVG-20010904/DTD/svg10.dtd">
<svg version="1.0" xmlns="http://www.w3.org/2000/svg"
 width="311.000000pt" height="311.000000pt" viewBox="0 0 311.000000 311.000000"
 preserveAspectRatio="xMidYMid meet">
<metadata>
Created by potrace 1.11, written by Peter Selinger 2001-2013
</metadata>
<g transform="translate(0.000000,311.000000) scale(0.100000,-0.100000)"
fill="#000000" stroke="none">
<path d="M1257 3006 c-47 -8 -72 -17 -78 -29 -8 -14 -5 -19 16 -27 15 -6 36
-10 48 -11 15 -1 9 -5 -18 -14 -93 -30 -263 -121 -273 -147 -2 -4 -8 -8 -13
-8 -8 0 -108 -98 -147 -145 -8 -9 -12 -25 -9 -36 5 -19 -8 -41 -50 -85 -18
-18 -5 -47 18 -41 20 5 21 7 -18 -55 -13 -21 -20 -38 -17 -38 4 0 1 -6 -5 -13
-6 -8 -8 -17 -4 -20 3 -4 2 -7 -3 -7 -5 0 -10 -8 -11 -17 -1 -23 -13 -94 -18
-110 -5 -15 19 -35 36 -31 15 3 15 -18 4 -132 -3 -30 -7 -80 -9 -110 -5 -69
-13 -90 -36 -90 -20 0 -80 -54 -81 -73 0 -7 -2 -21 -5 -32 -5 -23 -13 -99 -18
-165 -2 -25 3 -63 11 -85 9 -22 15 -63 14 -92 -1 -66 21 -118 59 -138 33 -17
37 -17 63 -4 15 9 17 4 18 -38 2 -108 6 -160 13 -200 4 -24 7 -45 7 -48 -2 -9
69 -117 101 -155 109 -128 143 -165 226 -247 51 -51 95 -102 97 -113 4 -21
-29 -48 -39 -31 -6 8 -41 7 -110 -3 -40 -6 -112 -16 -151 -21 -40 -5 -184 -28
-250 -41 -30 -6 -138 -54 -133 -59 6 -6 126 -70 181 -97 63 -31 267 -103 313
-111 16 -3 63 -13 104 -22 41 -8 84 -15 95 -14 11 1 27 -1 35 -5 56 -24 486
-5 540 24 10 5 20 7 23 4 8 -8 189 43 287 81 111 43 280 131 280 146 0 7 -97
50 -125 55 -11 2 -42 8 -70 13 -27 6 -75 13 -105 16 -30 3 -71 8 -90 10 -19 2
-66 7 -105 10 -38 4 -78 9 -88 12 -10 2 -23 0 -30 -5 -18 -15 -55 3 -53 26 1
14 30 34 106 74 284 148 322 177 377 293 19 41 36 80 37 87 2 7 8 26 14 41 7
16 12 33 12 39 0 6 7 7 18 2 9 -4 33 -9 52 -11 28 -3 41 2 67 25 17 17 29 33
26 36 -4 3 -2 6 3 6 5 0 11 12 12 27 2 27 48 103 62 103 8 0 24 38 36 85 4 17
8 35 10 40 1 6 4 22 7 37 3 15 9 33 12 39 12 19 7 86 -9 117 -8 16 -26 36 -39
45 -18 12 -23 23 -21 49 1 18 3 34 4 36 2 1 3 5 4 10 1 4 5 13 10 21 6 9 5 12
-2 8 -6 -5 -8 0 -5 12 4 17 8 18 24 8 27 -17 41 2 47 59 2 26 11 54 18 61 11
11 13 44 10 146 -4 138 -8 162 -31 230 -20 58 -19 61 14 38 35 -25 47 -26 55
-5 14 37 -124 205 -191 233 l-30 12 15 42 c22 63 24 137 5 144 -10 4 -23 -2
-35 -16 -10 -13 -18 -19 -19 -15 0 5 -2 38 -3 74 -2 53 -9 99 -21 140 -10 31
-37 79 -49 83 -15 6 -41 -25 -30 -35 12 -13 24 -207 12 -214 -4 -3 -8 0 -8 6
0 42 -85 180 -111 180 -27 0 -23 -25 11 -75 17 -24 30 -50 30 -59 0 -8 4 -17
9 -20 5 -3 11 -16 14 -28 4 -15 -17 3 -59 50 -73 80 -150 143 -236 191 -54 31
-201 86 -254 95 -13 3 -32 7 -42 10 -73 21 -266 27 -365 12z"/>
</g>
</svg>
